<svg xmlns="http://www.w3.org/2000/svg" viewBox="0 0 520 96" fill="none">
  <defs>
    <linearGradient id="ahh-gold-light" x1="0" y1="84" x2="84" y2="0" gradientUnits="userSpaceOnUse">
      <stop offset="0" stop-color="#A66A1F"/>
      <stop offset="0.48" stop-color="#D9A64A"/>
      <stop offset="1" stop-color="#F7E1AE"/>
    </linearGradient>
    <linearGradient id="ahh-ember-light" x1="26" y1="62" x2="52" y2="28" gradientUnits="userSpaceOnUse">
      <stop offset="0" stop-color="#B86526"/>
      <stop offset="1" stop-color="#FFF3D8"/>
    </linearGradient>
  </defs>

  <g transform="translate(8 6)">
    <rect x="0.75" y="0.75" width="82.5" height="82.5" rx="20" stroke="#E5C58A" stroke-opacity="0.55" stroke-width="1.5"/>
    <path d="M42 68c-11.6 0-19-8.8-19-18.8 0-8.4 4.9-15.4 10.8-20.9-.4 6.8 2.6 10.6 6.6 10.6-1.9-5.6-.1-12 5.3-16.9-1.1 6 1.6 11.2 5.2 14.8 3.7-3.5 5.5-8.1 5.1-12.4 5.7 5.5 9 12.6 9 20.6 0 11-8.4 23-23 23Z" fill="url(#ahh-gold-light)"/>
    <path d="M42.1 68c0-6.7.2-13.3.2-19.9 5.8.2 9.1 4.4 9.1 9.6 0 5.6-3.3 10.3-8.4 10.3h-.9Z" fill="url(#ahh-ember-light)"/>
    <path d="M24 69.5h36" stroke="#E5C58A" stroke-width="2" stroke-linecap="round" opacity="0.75"/>
  </g>

  <line x1="106" y1="14" x2="106" y2="82" stroke="#D9A64A" stroke-opacity="0.6"/>

  <text x="124" y="42" font-family="'Avenir Next', 'Montserrat', 'Segoe UI', Arial, sans-serif" font-size="18" font-weight="600" letter-spacing="2.8" fill="#F0C979">AARON&#x2019;S</text>
  <text x="124" y="72" font-family="'Didot', 'Bodoni MT', 'Playfair Display', Georgia, serif" font-size="36" font-weight="600" letter-spacing="1" fill="#FFFFFF">Hearth &amp; Home</text>
</svg>
